<?xml version="1.0" encoding="UTF-8" standalone="no" ?>
<!DOCTYPE svg PUBLIC "-//W3C//DTD SVG 1.1//EN" "http://www.w3.org/Graphics/SVG/1.1/DTD/svg11.dtd">
<svg xmlns="http://www.w3.org/2000/svg" xmlns:xlink="http://www.w3.org/1999/xlink" version="1.1" width="1280" height="1024" viewBox="0 0 1280 1024" xml:space="preserve">
<desc>Created with Fabric.js 5.3.0</desc>
<defs>
</defs>
<g transform="matrix(1 0 0 1 640 512)" id="background-logo"  >
<rect style="stroke: none; stroke-width: 0; stroke-dasharray: none; stroke-linecap: butt; stroke-dashoffset: 0; stroke-linejoin: miter; stroke-miterlimit: 4; fill: rgb(229,255,250); fill-rule: nonzero; opacity: 1;"  paint-order="stroke"  x="-640" y="-512" rx="0" ry="0" width="1280" height="1024" />
</g>
<g transform="matrix(1.9211538461538462 0 0 1.9211538461538462 640 363.72613716070583)" id="logo-logo"  >
<g style=""  paint-order="stroke"   >
		<g transform="matrix(0.3567004229697978 0 0 0.35670042296979787 13.231280088984079 -6.777308036426177)"  >
<path style="stroke: none; stroke-width: 1; stroke-dasharray: none; stroke-linecap: butt; stroke-dashoffset: 0; stroke-linejoin: miter; stroke-miterlimit: 4; fill: rgb(16,60,110); fill-rule: nonzero; opacity: 1;"  paint-order="stroke"  transform=" translate(-293.15, -236.95)" d="M 454.8 168.8 L 448.8 185 C 448.8 185 448.8 184.9 448.7 184.8 C 448.09999999999997 183.70000000000002 444.3 180.10000000000002 432.7 177.20000000000002 C 430.9 176.70000000000002 428.5 176.50000000000003 425.59999999999997 176.50000000000003 C 404.2 176.50000000000003 354.5 189.20000000000002 297.5 217.90000000000003 C 231.7 250.9 185.7 290 170.1 326 C 157.2 328.9 141.1 329.4 131.5 329.4 C 132.4 325.79999999999995 133.5 322.29999999999995 134.7 318.9 C 157.29999999999998 256.29999999999995 236.29999999999998 208.89999999999998 281.5 186.2 C 309.7 172 343.2 158.39999999999998 373.6 149.89999999999998 L 373.70000000000005 149.89999999999998 L 385.80000000000007 147.7 L 415.80000000000007 144.5 L 454.8 168.8 z" stroke-linecap="round" />
</g>
		<g transform="matrix(0.3567004229697978 0 0 0.35670042296979787 36.048155418367514 -82.64748800210216)"  >
<path style="stroke: none; stroke-width: 1; stroke-dasharray: none; stroke-linecap: butt; stroke-dashoffset: 0; stroke-linejoin: miter; stroke-miterlimit: 4; fill: rgb(16,60,110); fill-rule: nonzero; opacity: 1;"  paint-order="stroke"  transform=" translate(-357.1164936178541, -24.25)" d="M 403.2 11.9 C 403.2 11.9 397.4 32.9 396.3 37.1 C 395.3 41.300000000000004 371 42 371 42 L 320.3 42 C 302.40000000000003 26.4 313.3 6.5 328.8 6.5 L 375.2 6.5 L 389.09999999999997 7.8 L 403.2 11.9 z" stroke-linecap="round" />
</g>
		<g transform="matrix(0.3567004229697978 0 0 0.35670042296979787 -23.81503595966751 -58.766103785297446)"  >
<path style="stroke: none; stroke-width: 1; stroke-dasharray: none; stroke-linecap: butt; stroke-dashoffset: 0; stroke-linejoin: miter; stroke-miterlimit: 4; fill: rgb(16,60,110); fill-rule: nonzero; opacity: 1;"  paint-order="stroke"  transform=" translate(-189.29165371542513, -91.20081552742309)" d="M 255.6 36.2 L 212 41.1 C 204.2 51.2 187.4 73.30000000000001 171.2 97.4 C 139.39999999999998 144.9 133.5 164.7 132.5 171.5 C 132.5 171.5 121.1 185.9 120.6 181.6 C 120.1 177.29999999999998 106.6 148.3 107.19999999999999 145.3 C 107.69999999999999 142.4 117.6 116.60000000000001 117.89999999999999 116.00000000000001 C 123.99999999999999 105.20000000000002 131.7 92.70000000000002 141.39999999999998 78.20000000000002 C 164.39999999999998 43.90000000000002 187.89999999999998 14.40000000000002 188.89999999999998 13.100000000000023 C 191.79999999999998 9.400000000000023 196.09999999999997 7.000000000000023 200.79999999999998 6.500000000000023 L 260.2 0 C 279.6 13.6 271 34.6 255.6 36.2 z" stroke-linecap="round" />
</g>
		<g transform="matrix(0.3567004229697978 0 0 0.35670042296979787 0 -3.1256885244472983)"  >
<path style="stroke: none; stroke-width: 1; stroke-dasharray: none; stroke-linecap: butt; stroke-dashoffset: 0; stroke-linejoin: miter; stroke-miterlimit: 4; fill: rgb(31,181,163); fill-rule: nonzero; opacity: 1;"  paint-order="stroke"  transform=" translate(-256.0564636962755, -247.18721665810318)" d="M 117.8 116.1 L 117.8 116.1 C 117.8 116.1 117.8 116.1 117.8 116.1 C 117.8 116.1 117.8 116.1 117.8 116.1 z M 483.2 176.2 C 479.09999999999997 160 465.09999999999997 148.79999999999998 441.5 142.79999999999998 C 425.6 138.7 400.9 142.2 373.6 149.79999999999998 C 430.5 142.1 447.40000000000003 181.79999999999998 448.6 184.79999999999998 C 448.6 184.89999999999998 448.70000000000005 184.99999999999997 448.70000000000005 184.99999999999997 C 449.20000000000005 186.99999999999997 446.6 196.49999999999997 428.70000000000005 213.29999999999998 C 395.30000000000007 244.39999999999998 329.70000000000005 281.4 261.6 307.5 C 226.8 320.8 194.50000000000003 330.1 166.70000000000002 335.1 C 154.8 337.40000000000003 129.5 339.20000000000005 129.5 339.20000000000005 C 115.7 339.6 104 338.30000000000007 94.8 335.30000000000007 C 87.89999999999999 333.00000000000006 67.1 326.1000000000001 63.599999999999994 309.30000000000007 C 57.8 281.20000000000005 95.1 234.10000000000008 124.3 206.20000000000007 C 129.8 207.60000000000008 135.8 208.30000000000007 142.3 208.30000000000007 C 156.3 208.30000000000007 172.60000000000002 205.00000000000006 191.5 198.50000000000006 C 217.8 189.40000000000006 249.5 173.50000000000006 283.1 152.50000000000006 C 343.5 114.90000000000006 403.6 65.40000000000006 426.1 34.70000000000006 C 430.1 29.30000000000006 430.6 22.10000000000006 427.6 16.20000000000006 C 424.6 10.20000000000006 418.5 6.50000000000006 411.70000000000005 6.50000000000006 L 375.1 6.50000000000006 C 412.8 10.8 371 42 371 42 C 345.2 65.9 306.5 96.2 264.4 122.4 C 193.49999999999997 166.60000000000002 150.09999999999997 176.5 132.39999999999998 171.60000000000002 C 132.39999999999998 171.60000000000002 103.79999999999998 162.60000000000002 117.69999999999997 116.20000000000002 C 117.69999999999997 116.20000000000002 117.69999999999997 116.20000000000002 117.69999999999997 116.20000000000002 C 96.29999999999998 154.3 95.29999999999998 171.20000000000002 97.49999999999997 181.70000000000002 C 97.59999999999997 182.00000000000003 97.69999999999997 182.3 97.79999999999997 182.60000000000002 C 73.09999999999997 206.70000000000002 18.79999999999997 266.40000000000003 28.99999999999997 316.40000000000003 C 35.199999999999974 346.90000000000003 62.29999999999997 361.90000000000003 83.79999999999997 369.00000000000006 C 97.19999999999997 373.40000000000003 113.49999999999997 375.1000000000001 131.59999999999997 374.50000000000006 C 131.59999999999997 374.50000000000006 156.09999999999997 372.90000000000003 167.79999999999995 370.80000000000007 C 266.4 354.80000000000007 396.79999999999995 291.70000000000005 453.09999999999997 239.20000000000007 C 478.1 215.7 488 195.1 483.2 176.2 z M 289.5 479.5 C 287.1 480 284.7 480.4 282.2 480.6 C 279.8 480.70000000000005 277.4 480.70000000000005 275 480.40000000000003 C 270.2 479.90000000000003 265.4 478.6 260.7 476.70000000000005 C 256 474.80000000000007 251.29999999999998 472.50000000000006 246.39999999999998 469.80000000000007 C 249.09999999999997 474.70000000000005 253.2 478.70000000000005 258 481.80000000000007 C 262.8 484.9000000000001 268.3 487.1000000000001 274.2 487.70000000000005 C 277.09999999999997 488.00000000000006 280.09999999999997 487.90000000000003 283 487.50000000000006 C 285.9 487.00000000000006 288.7 486.1000000000001 291.4 485.00000000000006 C 296.59999999999997 482.50000000000006 301.09999999999997 478.90000000000003 304.29999999999995 474.30000000000007 C 299.2 476.4 294.4 478.3 289.5 479.5 z" stroke-linecap="round" />
</g>
		<g transform="matrix(0.3567004229697978 0 0 0.35670042296979787 -7.261159210630808 67.50555504703425)"  >
<path style="stroke: none; stroke-width: 1; stroke-dasharray: none; stroke-linecap: butt; stroke-dashoffset: 0; stroke-linejoin: miter; stroke-miterlimit: 4; fill: rgb(16,60,110); fill-rule: nonzero; opacity: 1;"  paint-order="stroke"  transform=" translate(-235.70000000000002, -445.20000000000005)" d="M 319 440.3 C 315.1 425.6 298.4 415.2 277.2 415.2 C 258.4 415.2 243.2 423.3 237.29999999999998 435.2 C 206.79999999999998 418.9 185.59999999999997 401.5 174.2 383.4 C 173.2 381.79999999999995 172.2 380.09999999999997 171.29999999999998 378.5 C 159.2 381.4 144.1 382.1 134 382.1 C 143.7 408.90000000000003 167.9 437.6 217.6 464.90000000000003 C 217.29999999999998 466.70000000000005 217.1 468.6 217.1 470.50000000000006 C 217.1 494.1000000000001 243 511.90000000000003 277.3 511.90000000000003 C 311.6 511.90000000000003 337.40000000000003 494.1 337.40000000000003 470.50000000000006 C 337.3 458.4 330.4 447.8 319 440.3 z M 291.4 484.9 C 288.79999999999995 486.09999999999997 286 487 283 487.4 C 280.1 487.79999999999995 277.1 487.9 274.2 487.59999999999997 C 268.3 486.99999999999994 262.8 484.79999999999995 258 481.7 C 253.3 478.59999999999997 249.1 474.59999999999997 246.4 469.7 C 251.20000000000002 472.4 255.9 474.7 260.7 476.59999999999997 C 265.4 478.49999999999994 270.2 479.79999999999995 275 480.29999999999995 C 277.4 480.59999999999997 279.8 480.59999999999997 282.2 480.49999999999994 C 284.59999999999997 480.3999999999999 287 479.8999999999999 289.5 479.3999999999999 C 294.3 478.2999999999999 299.2 476.3999999999999 304.3 474.19999999999993 C 301.2 478.8 296.7 482.5 291.4 484.9 z" stroke-linecap="round" />
</g>
		<g transform="matrix(0.3567004229697978 0 0 0.35670042296979787 6.882012560121666 79.46829441420937)"  >
<path style="stroke: none; stroke-width: 1; stroke-dasharray: none; stroke-linecap: butt; stroke-dashoffset: 0; stroke-linejoin: miter; stroke-miterlimit: 4; fill: rgb(31,181,163); fill-rule: nonzero; opacity: 1;"  paint-order="stroke"  transform=" translate(-275.35, -478.7372166581032)" d="M 304.3 474.2 C 301.1 478.8 296.6 482.4 291.40000000000003 484.9 C 288.8 486.09999999999997 286.00000000000006 487 283.00000000000006 487.4 C 280.1000000000001 487.79999999999995 277.1000000000001 487.9 274.20000000000005 487.59999999999997 C 268.30000000000007 486.99999999999994 262.80000000000007 484.79999999999995 258.00000000000006 481.7 C 253.30000000000007 478.59999999999997 249.10000000000005 474.59999999999997 246.40000000000006 469.7 C 251.20000000000007 472.4 255.90000000000006 474.7 260.70000000000005 476.59999999999997 C 265.40000000000003 478.49999999999994 270.20000000000005 479.79999999999995 275.00000000000006 480.29999999999995 C 277.40000000000003 480.59999999999997 279.80000000000007 480.59999999999997 282.20000000000005 480.49999999999994 C 284.6 480.3999999999999 287.00000000000006 479.8999999999999 289.50000000000006 479.3999999999999 C 294.4 478.3 299.2 476.4 304.3 474.2 z" stroke-linecap="round" />
</g>
</g>
</g>
<g transform="matrix(1.9211538461538462 0 0 1.9211538461538462 639.967820673077 658.8103345068597)" id="text-logo"  >
<g style=""  paint-order="stroke"   >
		<g transform="matrix(1 0 0 1 0 0)" id="text-logo-path-0"  >
<path style="stroke: none; stroke-width: 0; stroke-dasharray: none; stroke-linecap: butt; stroke-dashoffset: 0; stroke-linejoin: miter; stroke-miterlimit: 4; fill: rgb(20,60,108); fill-rule: nonzero; opacity: 1;"  paint-order="stroke"  transform=" translate(-192.85999999999999, 23.45)" d="M 31.02 0 L 31.02 -46.9 L 24.32 -46.9 L 16.55 -18.89 L 8.71 -46.9 L 2.01 -46.9 L 2.01 0 L 8.71 0 L 8.71 -22.91 L 13.2 -6.9 L 19.9 -6.9 L 24.32 -22.91 L 24.32 0 Z M 55.88 -8.91 L 65.93 -8.91 L 67.6 0 L 74.3 0 L 65.39 -46.9 L 56.41 -46.9 L 47.5 0 L 54.2 0 Z M 57.22 -15.95 L 60.9 -35.18 L 64.59 -15.95 Z M 107.4 -24.32 L 105.26 -26 C 104.92 -26.33 104.59 -26.6 104.25 -26.87 C 101.24 -29.35 97.55 -32.36 97.55 -35.71 C 97.55 -38.79 100.03 -41.34 103.11 -41.34 C 106.19 -41.34 108.74 -38.79 108.74 -35.71 L 115.44 -35.71 C 115.44 -42.48 109.88 -48.04 103.11 -48.04 C 96.35 -48.04 90.85 -42.48 90.85 -35.71 C 90.85 -29.15 96.35 -24.66 100.03 -21.71 C 100.37 -21.44 100.7 -21.17 100.97 -20.9 L 103.18 -19.1 C 107.67 -15.48 108.74 -14.47 108.74 -11.19 C 108.74 -8.11 106.19 -5.56 103.11 -5.56 C 100.03 -5.56 97.55 -8.11 97.55 -11.19 L 90.85 -11.19 C 90.85 -4.42 96.35 1.14 103.11 1.14 C 109.88 1.14 115.44 -4.42 115.44 -11.19 C 115.44 -17.76 112.09 -20.5 107.4 -24.32 Z M 155.44 0 L 155.44 -46.9 L 148.74 -46.9 L 148.74 -26.8 L 138.56 -26.8 L 138.56 -46.9 L 131.86 -46.9 L 131.86 0 L 138.56 0 L 138.56 -20.1 L 148.74 -20.1 L 148.74 0 Z M 191.96 0 L 191.96 -6.7 L 178.56 -6.7 L 178.56 -46.9 L 171.86 -46.9 L 171.86 0 Z M 220.7 -48.04 C 213.93 -48.04 208.44 -42.48 208.44 -35.71 L 208.44 -11.19 C 208.44 -4.42 213.93 1.14 220.7 1.14 C 227.47 1.14 233.03 -4.42 233.03 -11.19 L 233.03 -35.71 C 233.03 -42.48 227.47 -48.04 220.7 -48.04 Z M 215.14 -11.19 L 215.14 -35.71 C 215.14 -38.79 217.62 -41.34 220.7 -41.34 C 223.78 -41.34 226.33 -38.79 226.33 -35.71 L 226.33 -11.19 C 226.33 -8.11 223.78 -5.56 220.7 -5.56 C 217.62 -5.56 215.14 -8.11 215.14 -11.19 Z M 278.45 0 L 278.45 -46.9 L 271.75 -46.9 L 263.98 -18.89 L 256.14 -46.9 L 249.44 -46.9 L 249.44 0 L 256.14 0 L 256.14 -22.91 L 260.63 -6.9 L 267.33 -6.9 L 271.75 -22.91 L 271.75 0 Z M 294.93 -6.7 L 294.93 0 L 301.63 0 L 301.63 -6.7 Z M 347.13 0 L 347.13 -46.9 L 340.43 -46.9 L 332.65 -18.89 L 324.82 -46.9 L 318.12 -46.9 L 318.12 0 L 324.82 0 L 324.82 -22.91 L 329.31 -6.9 L 336 -6.9 L 340.43 -22.91 L 340.43 0 Z M 370.31 -26.8 L 370.31 -40.2 L 383.71 -40.2 L 383.71 -46.9 L 363.61 -46.9 L 363.61 0 L 383.71 0 L 383.71 -6.7 L 370.31 -6.7 L 370.31 -20.1 L 379.22 -20.1 L 379.22 -26.8 Z" stroke-linecap="round" />
</g>
</g>
</g>
</svg>