<svg width="105" height="105" viewBox="0 0 105 105" fill="none" xmlns="http://www.w3.org/2000/svg">
<path d="M52.5 65.625C54.915 65.625 56.875 67.585 56.875 70C56.875 72.415 54.915 74.375 52.5 74.375C50.085 74.375 48.125 72.415 48.125 70C48.125 67.585 50.085 65.625 52.5 65.625ZM52.5 30.625C54.915 30.625 56.875 32.585 56.875 35V56.875C56.875 59.29 54.915 61.25 52.5 61.25C50.085 61.25 48.125 59.29 48.125 56.875V35C48.125 32.585 50.085 30.625 52.5 30.625ZM52.5 87.5C33.2019 87.5 17.5 71.7981 17.5 52.5C17.5 33.2019 33.2019 17.5 52.5 17.5C71.7981 17.5 87.5 33.2019 87.5 52.5C87.5 71.7981 71.7981 87.5 52.5 87.5ZM52.5 8.75C28.3369 8.75 8.75 28.3369 8.75 52.5C8.75 76.6631 28.3369 96.25 52.5 96.25C76.6631 96.25 96.25 76.6631 96.25 52.5C96.25 28.3369 76.6631 8.75 52.5 8.75Z" fill="#0C3058"/>
</svg>
