<svg width="105" height="105" viewBox="0 0 105 105" fill="none" xmlns="http://www.w3.org/2000/svg">
<path d="M52.498 70.2187C53.1936 70.2187 53.8893 70.385 54.5236 70.7131L71.013 79.3319L67.8761 61.145C67.6268 59.7188 68.1036 58.2663 69.1449 57.2556L82.4274 44.4106L64.0393 41.7331C62.6174 41.5275 61.388 40.6394 60.7493 39.3531L52.498 22.7544L44.2468 39.3531C43.608 40.6394 42.3786 41.5275 40.9568 41.7331L22.5686 44.4106L35.8511 57.2556C36.8924 58.2663 37.3693 59.7188 37.1199 61.145L33.983 79.3319L50.4724 70.7131C51.1068 70.385 51.8024 70.2187 52.498 70.2187ZM76.8318 91.6781C76.1361 91.6781 75.4405 91.5162 74.8061 91.1837L52.498 79.5287L30.1899 91.1837C28.7111 91.9537 26.9261 91.8181 25.5918 90.8381C24.2443 89.8581 23.5749 88.2 23.8549 86.5594L28.1074 61.9369L10.0824 44.5025C8.87927 43.3431 8.45052 41.6019 8.96239 40.0138C9.46989 38.4256 10.8436 37.2706 12.493 37.03L37.4349 33.4075L48.578 10.9813C50.0568 8.00625 54.9393 8.00625 56.418 10.9813L67.5611 33.4075L92.503 37.03C94.1524 37.2706 95.5261 38.4256 96.0336 40.0138C96.5455 41.6019 96.1168 43.3431 94.9136 44.5025L76.8886 61.9369L81.1411 86.5594C81.4211 88.2 80.7518 89.8581 79.4043 90.8381C78.6474 91.3981 77.7418 91.6781 76.8318 91.6781Z" fill="#212529"/>
</svg>
