<svg width="105" height="105" viewBox="0 0 105 105" fill="none" xmlns="http://www.w3.org/2000/svg">
<path d="M64.3326 36.7259L47.7776 58.4653L40.6332 49.3391C39.1457 47.4316 36.3895 47.0991 34.4908 48.5909C32.5876 50.0784 32.2508 52.8303 33.7426 54.7291L44.3783 68.3222C45.2095 69.3809 46.4782 69.9978 47.8257 69.9978H47.8564C49.2082 69.9934 50.4857 69.3547 51.3039 68.2741L71.2933 42.0241C72.7589 40.0991 72.387 37.3603 70.462 35.8947C68.5326 34.4291 65.7939 34.8053 64.3326 36.7259ZM52.5 87.5C33.2019 87.5 17.5 71.7981 17.5 52.5C17.5 33.2019 33.2019 17.5 52.5 17.5C71.7981 17.5 87.5 33.2019 87.5 52.5C87.5 71.7981 71.7981 87.5 52.5 87.5ZM52.5 8.75C28.3369 8.75 8.75 28.3413 8.75 52.5C8.75 76.6588 28.3369 96.25 52.5 96.25C76.6631 96.25 96.25 76.6588 96.25 52.5C96.25 28.3413 76.6631 8.75 52.5 8.75Z" fill="#212529"/>
</svg>
