<svg width="105" height="105" viewBox="0 0 105 105" fill="none" xmlns="http://www.w3.org/2000/svg">
<path d="M64.3431 40.6569C62.6325 38.9463 59.8675 38.9463 58.1569 40.6569L52.5 46.3138L46.8431 40.6569C45.1325 38.9463 42.3675 38.9463 40.6569 40.6569C38.9463 42.3675 38.9463 45.1325 40.6569 46.8431L46.3138 52.5L40.6569 58.1569C38.9463 59.8675 38.9463 62.6325 40.6569 64.3431C41.51 65.1962 42.63 65.625 43.75 65.625C44.87 65.625 45.99 65.1962 46.8431 64.3431L52.5 58.6862L58.1569 64.3431C59.01 65.1962 60.13 65.625 61.25 65.625C62.37 65.625 63.49 65.1962 64.3431 64.3431C66.0537 62.6325 66.0537 59.8675 64.3431 58.1569L58.6862 52.5L64.3431 46.8431C66.0537 45.1325 66.0537 42.3675 64.3431 40.6569ZM52.5 87.5C33.2019 87.5 17.5 71.7981 17.5 52.5C17.5 33.2019 33.2019 17.5 52.5 17.5C71.7981 17.5 87.5 33.2019 87.5 52.5C87.5 71.7981 71.7981 87.5 52.5 87.5ZM52.5 8.75C28.3763 8.75 8.75 28.3763 8.75 52.5C8.75 76.6237 28.3763 96.25 52.5 96.25C76.6237 96.25 96.25 76.6237 96.25 52.5C96.25 28.3763 76.6237 8.75 52.5 8.75Z" fill="#fff"/>
</svg>
