<svg xmlns="http://www.w3.org/2000/svg" version="1.1" xmlns:xlink="http://www.w3.org/1999/xlink" xmlns:svgjs="http://svgjs.com/svgjs" width="260" height="260"><svg id="SvgjsSvg1000" data-name="Layer 1" xmlns="http://www.w3.org/2000/svg" viewBox="0 0 260 260"><circle cx="130" cy="130" r="121.87" style="fill:#fff"></circle><path d="M130,16.25a113.75,113.75,0,0,1,80.43,194.18A113.75,113.75,0,1,1,49.57,49.57,113,113,0,0,1,130,16.25M130,0A130,130,0,1,0,260,130,130,130,0,0,0,130,0Z" style="fill:#75c043"></path><path d="M207.57,110,175.72,142l6.59,5.29c14.28,11.27-2.64,32.66-16.89,21.37l-58-45.81L72.9,167.92c-11,14.43-32.7-2.15-21.66-16.59,57.39-74.88,43.57-77.66,103.39-26.85l33.63-33.7c12.85-12.88,32.17,6.39,19.31,19.25" style="fill:#002664"></path></svg><style>@media (prefers-color-scheme: light) { :root { filter: none; } }
</style></svg>