<svg xmlns="http://www.w3.org/2000/svg" width="196.314" height="64.785" viewBox="0 0 196.314 64.785">
  <g id="Group_1461" data-name="Group 1461" transform="translate(-1148.055 -366.817)">
    <path id="Path_3965" data-name="Path 3965" d="M1148.055,426.971a4.707,4.707,0,0,0,4.7,4.631h55.326a4.737,4.737,0,0,0,4.828-4.631V371.448a4.706,4.706,0,0,0-4.7-4.631h-55.326a4.737,4.737,0,0,0-4.828,4.631Zm86.838-49.715,7.568,12.069,6.263-3.914-9.526-15.006h-8.546l-12.461,18.333,6.068,4.437Zm86.185,4.763v4.828h7.568v-4.828H1341.3v-6.785h-12.658v-4.828h-7.568v4.828h-14.614v-4.828H1298.9v4.828h-12.657v6.785H1298.9v4.828h7.568v-4.828Zm-49,9.069v19.377h7.568V384.3h-11.091v-5.48h11.874v-6.785h-31.316v6.785h11.874v5.48H1249.9v26.162h7.568V391.087Zm-109.608-4.306a5.579,5.579,0,1,1,5.546-5.546A5.584,5.584,0,0,1,1162.474,386.781Zm151.3,27.663c3.523,6.589,11.613,11.352,23.944,11.612h4.175v-6.916h-2.937c-9.656,0-16.05-2.87-19.573-8.677h24.988v-6.785h-8.416V390.108h-18.4V385.28h-7.568v4.828h-18.4v13.571h-8.416v6.785h24.988c-3.523,5.806-9.918,8.677-19.573,8.677h-2.937v6.916h4.175C1302.158,425.8,1310.248,421.033,1313.771,414.444Zm-69.418,8.546-5.415-5.48c4.893-5.285,8.611-12.136,8.611-20.225V395.85h-7.959l-1.5-8.417h-7.438l1.5,8.417h-10.7v6.784h18.007a26.035,26.035,0,0,1-5.48,9.787l-5.48-5.546-5.024,5.088,15.854,16.115Zm-71.114-.913V391.022h9.2v4.371h.13a12.029,12.029,0,0,1,9.917-5.023c7.241,0,10.764,4.958,10.764,11.417v20.291h-9.526V404.984c0-3.132-1.109-6.133-5.154-6.133-4.11,0-5.806,2.936-5.806,6.524v16.7Zm-6,0h-9.525V391.022h9.525Zm101.322-16.9V394.348h-7.568v14.811c0,6.85-3.98,9.982-10.635,9.982h-2.935v6.916h1.957c8.873,0,13.831-2.936,16.441-7.437l12.461,8.024,4.11-6.2-14.093-8.873A44.424,44.424,0,0,0,1268.558,405.179Zm30.6-1.5v-6.785h10.829v6.785Zm29.228,0h-10.831v-6.785h10.831Z" transform="translate(0 0)" fill="#0a66c1"/>
  </g>
</svg>
